<?xml version="1.0" encoding="UTF-8"?>
<svg id="Layer_2" data-name="Layer 2" xmlns="http://www.w3.org/2000/svg" viewBox="0 0 1122.87 677.42">
  <defs>
    <style>
      .cls-1 {
        stroke-width: 2.73px;
      }

      .cls-1, .cls-2, .cls-3 {
        fill: none;
        stroke: #fff;
        stroke-miterlimit: 10;
      }

      .cls-4 {
        fill: #fff;
      }

      .cls-4, .cls-5 {
        stroke-width: 0px;
      }

      .cls-5 {
        fill: #231f20;
      }

      .cls-2 {
        stroke-width: 2.92px;
      }

      .cls-3 {
        stroke-width: 2.91px;
      }
    </style>
  </defs>
  <g id="Layer_1-2" data-name="Layer 1">
    <g>
      <g>
        <path class="cls-2" d="m483.47,18.46c10.6,9.43,15.91,22.19,15.91,38.28v27.96c0,16.1-5.81,28.97-17.41,38.6-11.61,9.64-26.57,14.46-44.87,14.46-6.92,0-16.19-.84-27.8-2.54v96.9h-23.11V4.32h54.59c17.86,0,32.09,4.72,42.7,14.14Zm-7.2,38.92c0-22.66-11.84-33.99-35.5-33.99h-31.48v92.13c8.71,1.48,17.97,2.22,27.8,2.22,12.27,0,21.88-2.86,28.8-8.58,6.92-5.72,10.38-14.08,10.38-25.1v-26.69Z"/>
        <path class="cls-2" d="m540.15,221.15c-10.61-9.42-15.91-22.18-15.91-38.28V53.88c0-16.31,5.3-29.12,15.91-38.44,10.6-9.32,24.95-13.98,43.03-13.98s33.04,4.72,44.2,14.14c11.16,9.43,16.74,22.19,16.74,38.28v128.99c0,15.89-5.58,28.59-16.74,38.12-11.17,9.53-25.9,14.3-44.2,14.3s-32.43-4.71-43.03-14.14Zm70.99-13.5c6.58-5.72,9.88-14.19,9.88-25.42V54.52c0-11.22-3.3-19.7-9.88-25.42-6.59-5.72-15.91-8.58-27.96-8.58s-20.48,2.86-26.62,8.58c-6.14,5.72-9.21,14.19-9.21,25.42v127.72c0,11.23,3.07,19.7,9.21,25.42,6.14,5.72,15.01,8.58,26.62,8.58s21.37-2.86,27.96-8.58Z"/>
        <path class="cls-2" d="m790.64,18.46c10.6,9.43,15.91,22.19,15.91,38.28v27.96c0,16.1-5.81,28.97-17.41,38.6-11.61,9.64-26.57,14.46-44.87,14.46-6.92,0-16.19-.84-27.8-2.54v96.9h-23.11V4.32h54.59c17.86,0,32.09,4.72,42.7,14.14Zm-7.2,38.92c0-22.66-11.84-33.99-35.5-33.99h-31.48v92.13c8.71,1.48,17.97,2.22,27.8,2.22,12.27,0,21.88-2.86,28.8-8.58,6.92-5.72,10.38-14.08,10.38-25.1v-26.69Z"/>
        <path class="cls-1" d="m880.5,221.15c-9.28-9.42-13.91-22.18-13.91-38.28V4.32h20.21v177.91c0,11.23,2.68,19.7,8.05,25.42,5.37,5.72,13.13,8.58,23.28,8.58s18.69-2.86,24.46-8.58c5.76-5.72,8.64-14.19,8.64-25.42V4.32h20.21v178.55c0,16.1-4.88,28.86-14.64,38.28-9.77,9.43-22.65,14.14-38.66,14.14s-28.36-4.71-37.64-14.14Z"/>
        <path class="cls-3" d="m1105.71,20.05c10.47,9.43,15.71,22.19,15.71,38.28v27.96c0,16.1-5.74,28.97-17.2,38.6-11.47,9.64-26.25,14.46-44.32,14.46-6.84,0-15.99-.84-27.46-2.54v96.9h-22.82V5.91h53.92c17.64,0,31.7,4.72,42.17,14.14Zm-7.11,38.92c0-22.66-11.69-33.99-35.06-33.99h-31.09v92.13c8.6,1.48,17.75,2.22,27.46,2.22,12.12,0,21.61-2.86,28.45-8.58,6.83-5.72,10.25-14.08,10.25-25.1v-26.69Z"/>
      </g>
      <path class="cls-4" d="m789.01,190.81v-15.92h28.44v15.92h-28.44Z"/>
    </g>
    <g>
      <path class="cls-5" d="m24.26,512.91c15.85-16.82,37.2-25.23,64.05-25.23h172.26c26.53,0,47.8,8.49,63.81,25.48,16.01,16.98,24.02,39.55,24.02,67.69v93.17H.48v-93.17c0-28.46,7.93-51.11,23.78-67.93Zm64.54,36.39c-11.96,0-20.7,2.43-26.2,7.28-5.5,4.85-8.25,12.94-8.25,24.26v32.03h240.2v-32.03c0-11.32-2.75-19.41-8.25-24.26-5.5-4.85-14.23-7.28-26.2-7.28H88.8Z"/>
      <path class="cls-5" d="m348.89,431.39H0v-61.63h348.89v61.63Z"/>
      <path class="cls-5" d="m24.26,144.61c15.85-16.82,37.2-25.23,64.05-25.23h172.26c26.53,0,47.8,8.49,63.81,25.48,16.01,16.98,24.02,39.55,24.02,67.69v93.17H.48v-93.17c0-28.46,7.93-51.11,23.78-67.93Zm64.54,36.39c-11.96,0-20.7,2.43-26.2,7.28-5.5,4.85-8.25,12.94-8.25,24.26v32.03h240.2v-32.03c0-11.32-2.75-19.41-8.25-24.26-5.5-4.85-14.23-7.28-26.2-7.28H88.8Z"/>
      <path class="cls-5" d="m348.89,63.09H0V1.46h348.89v61.63Z"/>
    </g>
    <g>
      <path class="cls-4" d="m381.22,495.67h28.88l28.88,81.25,29.38-81.25h28.38v179.25h-23.9v-107.25c0-4,.37-10.25,1.12-18.75.75-8.5,1.12-13.25,1.12-14.25l-2.24,6.5c-1.99,6.84-4.98,15.67-8.96,26.5-2.82,7-5.31,13.84-7.47,20.5-1.16,3-2.45,6.46-3.86,10.38-1.41,3.92-3.11,8.29-5.1,13.12h-17.43l-7.72-21.25c-4.48-12.5-7.22-20.08-8.21-22.75-3.98-10.83-6.97-19.66-8.96-26.5l-2.24-6.5c0,1,.41,5.75,1.24,14.25.83,8.5,1.24,14.75,1.24,18.75v107.25h-24.15v-179.25Z"/>
      <path class="cls-4" d="m544.66,665.79c-8.38-7.75-12.57-18.21-12.57-31.38v-138.75h24.4v138.25c0,7.67,1.78,13.29,5.35,16.88,3.57,3.59,9,5.38,16.31,5.38,15.6,0,23.4-7.41,23.4-22.25v-138.25h24.15v138.75c0,13-4.36,23.42-13.07,31.25-8.71,7.84-20.21,11.75-34.48,11.75s-25.11-3.88-33.48-11.62Z"/>
      <path class="cls-4" d="m661.04,669.67c-8.13-5.16-13.94-11-17.43-17.5l17.18-14c2.15,3.84,5.97,7.79,11.45,11.88,5.48,4.09,11.29,6.12,17.43,6.12,8.79,0,15.6-2.12,20.41-6.38,4.81-4.25,7.22-9.96,7.22-17.12,0-5.66-1.54-10.75-4.61-15.25-3.07-4.5-8.51-9.91-16.31-16.25-.83-.66-5.15-4.25-12.95-10.75l-7.22-6c-9.13-7.5-15.68-14.96-19.67-22.38-3.98-7.41-5.97-15.88-5.97-25.38,0-8.33,1.87-15.79,5.6-22.38,3.73-6.58,9-11.71,15.81-15.38,6.8-3.66,14.52-5.5,23.15-5.5,7.13.17,14.19,1.5,21.16,4s12.95,5.5,17.92,9v41h-22.41v-28.25c-4.32-2.66-9.96-4.16-16.93-4.5-6.31,0-11.29,1.92-14.94,5.75-3.65,3.84-5.56,8.92-5.72,15.25,0,6.17,1.33,11.46,3.98,15.88,2.65,4.42,6.97,9.12,12.95,14.12,3.49,2.84,10.46,8.5,20.91,17,10.79,8.5,18.34,16.38,22.65,23.62,4.31,7.25,6.47,15.54,6.47,24.88,0,14-4.65,25.21-13.94,33.62-9.3,8.42-21.83,12.62-37.59,12.62-10.95,0-20.5-2.58-28.63-7.75Z"/>
      <path class="cls-4" d="m794.47,653.67h58.01v21.25h-82.15v-179.25h81.9v21.25h-57.76v54.75h53.03v21.25h-53.03v60.75Z"/>
      <path class="cls-4" d="m890.19,665.79c-8.38-7.75-12.57-18.21-12.57-31.38v-138.75h24.4v138.25c0,7.67,1.78,13.29,5.35,16.88,3.57,3.59,9,5.38,16.31,5.38,15.6,0,23.4-7.41,23.4-22.25v-138.25h24.15v138.75c0,13-4.36,23.42-13.07,31.25-8.71,7.84-20.21,11.75-34.48,11.75s-25.11-3.88-33.48-11.62Z"/>
      <path class="cls-4" d="m1006.57,495.67h28.88l28.88,81.25,29.38-81.25h28.38v179.25h-23.9v-107.25c0-4,.37-10.25,1.12-18.75.75-8.5,1.12-13.25,1.12-14.25l-2.24,6.5c-1.99,6.84-4.98,15.67-8.96,26.5-2.82,7-5.31,13.84-7.47,20.5-1.16,3-2.45,6.46-3.86,10.38-1.41,3.92-3.11,8.29-5.1,13.12h-17.43l-7.72-21.25c-4.48-12.5-7.22-20.08-8.21-22.75-3.98-10.83-6.97-19.66-8.96-26.5l-2.24-6.5c0,1,.41,5.75,1.24,14.25.83,8.5,1.24,14.75,1.24,18.75v107.25h-24.15v-179.25Z"/>
    </g>
    <g>
      <path class="cls-4" d="m476.88,268.7c9.5,9.02,14.25,21.28,14.25,36.79v107.9c0,15.32-4.8,27.53-14.4,36.64-9.6,9.12-22.44,13.67-38.54,13.67h-53.22v-208.52h53.22c16.29,0,29.18,4.51,38.68,13.52Zm-13.67,37.08c0-8.92-2.04-15.46-6.11-19.63-4.07-4.17-10.38-6.25-18.9-6.25h-25.01v159.08h25.01c8.53,0,14.83-2.08,18.9-6.25,4.07-4.17,6.11-10.71,6.11-19.63v-107.32Z"/>
      <path class="cls-4" d="m557.73,438.98h67.76v24.72h-95.97v-208.52h95.68v24.72h-67.47v63.69h61.95v24.72h-61.95v70.67Z"/>
      <path class="cls-4" d="m659.22,457.59c-9.5-6.01-16.29-12.8-20.36-20.36l20.07-16.29c2.52,4.46,6.98,9.07,13.38,13.81,6.4,4.75,13.18,7.13,20.36,7.13,10.27,0,18.22-2.47,23.85-7.42,5.62-4.94,8.43-11.58,8.43-19.92,0-6.59-1.79-12.51-5.38-17.74-3.59-5.23-9.94-11.53-19.05-18.9-.97-.77-6.01-4.94-15.12-12.51l-8.43-6.98c-10.67-8.73-18.32-17.4-22.98-26.03-4.65-8.62-6.98-18.47-6.98-29.52,0-9.69,2.18-18.37,6.54-26.03,4.36-7.66,10.52-13.62,18.47-17.89,7.95-4.26,16.96-6.4,27.05-6.4,8.33.2,16.58,1.75,24.72,4.65s15.12,6.4,20.94,10.47v47.7h-26.17v-32.86c-5.04-3.1-11.63-4.84-19.78-5.24-7.37,0-13.19,2.23-17.45,6.69-4.27,4.46-6.5,10.37-6.69,17.74,0,7.18,1.55,13.33,4.65,18.47,3.1,5.14,8.14,10.62,15.12,16.43,4.07,3.3,12.21,9.89,24.43,19.78,12.6,9.89,21.42,19.05,26.47,27.48,5.04,8.43,7.56,18.08,7.56,28.94,0,16.29-5.43,29.33-16.29,39.12-10.86,9.79-25.5,14.69-43.92,14.69-12.8,0-23.95-3-33.45-9.02Z"/>
      <path class="cls-4" d="m786.9,463.99v-208.82h28.5v208.82h-28.5Z"/>
      <path class="cls-4" d="m869.05,452.94c-10.38-9.11-15.56-21.33-15.56-36.64v-113.42c0-14.93,5.04-27.05,15.12-36.35,10.08-9.31,23.17-13.96,39.26-13.96,10.27,0,19.82,1.45,28.65,4.36,8.82,2.91,16.53,6.4,23.12,10.47v44.79h-26.17v-29.96c-8.73-3.29-16.87-4.94-24.43-4.94-8.92,0-15.71,2.23-20.36,6.69-4.65,4.46-6.98,10.86-6.98,19.19v112.84c0,17.26,9.5,25.88,28.5,25.88,5.43,0,10.13-.63,14.11-1.89,3.97-1.26,7.12-2.62,9.45-4.07,2.33-1.45,3.49-2.37,3.49-2.76v-63.11h-29.08v-24.72h57.29v99.75c-6.01,6.59-13.67,11.83-22.98,15.71-9.31,3.88-20.07,5.82-32.28,5.82-17.06,0-30.78-4.55-41.15-13.67Z"/>
      <path class="cls-4" d="m1118.73,255.18v208.52h-27.34l-49.44-119.24c-3.69-8.33-6.64-17.89-8.87-28.65-2.23-10.76-3.44-16.43-3.64-17.01l2.62,40.13v124.77h-27.05v-208.52h31.12l46.53,117.5c2.33,5.82,4.75,13.91,7.27,24.28,2.52,10.37,3.78,16.05,3.78,17.01l-2.33-39.55v-119.24h27.34Z"/>
    </g>
  </g>
</svg>