<?xml version="1.0" encoding="UTF-8"?>
<svg id="Layer_2" data-name="Layer 2" xmlns="http://www.w3.org/2000/svg" viewBox="0 0 1140.51 792.67">
  <defs>
    <style>
      .cls-1, .cls-2, .cls-3 {
        fill: #fff;
      }

      .cls-1, .cls-4 {
        stroke-width: 0px;
      }

      .cls-2 {
        font-size: 290.83px;
      }

      .cls-2, .cls-3 {
        font-family: 29LTAdir-SemiBold, '29LT Adir';
        font-weight: 600;
      }

      .cls-3 {
        font-size: 250px;
      }

      .cls-5 {
        stroke-width: 2.92px;
      }

      .cls-5, .cls-6, .cls-7 {
        fill: none;
        stroke: #fff;
        stroke-miterlimit: 10;
      }

      .cls-4 {
        fill: #231f20;
      }

      .cls-6 {
        stroke-width: 2.73px;
      }

      .cls-8 {
        letter-spacing: 0em;
      }

      .cls-7 {
        stroke-width: 2.91px;
      }
    </style>
  </defs>
  <g id="Layer_1-2" data-name="Layer 1">
    <g>
      <g>
        <path class="cls-5" d="m483.47,18.46c10.6,9.43,15.91,22.19,15.91,38.28v27.96c0,16.1-5.81,28.97-17.41,38.6-11.61,9.64-26.57,14.46-44.87,14.46-6.92,0-16.19-.84-27.8-2.54v96.9h-23.11V4.32h54.59c17.86,0,32.09,4.72,42.7,14.14Zm-7.2,38.92c0-22.66-11.84-33.99-35.5-33.99h-31.48v92.13c8.71,1.48,17.97,2.22,27.8,2.22,12.27,0,21.88-2.86,28.8-8.58,6.92-5.72,10.38-14.08,10.38-25.1v-26.69Z"/>
        <path class="cls-5" d="m540.15,221.15c-10.61-9.42-15.91-22.18-15.91-38.28V53.88c0-16.31,5.3-29.12,15.91-38.44,10.6-9.32,24.95-13.98,43.03-13.98s33.04,4.72,44.2,14.14c11.16,9.43,16.74,22.19,16.74,38.28v128.99c0,15.89-5.58,28.59-16.74,38.12-11.17,9.53-25.9,14.3-44.2,14.3s-32.43-4.71-43.03-14.14Zm70.99-13.5c6.58-5.72,9.88-14.19,9.88-25.42V54.52c0-11.22-3.3-19.7-9.88-25.42-6.59-5.72-15.91-8.58-27.96-8.58s-20.48,2.86-26.62,8.58c-6.14,5.72-9.21,14.19-9.21,25.42v127.72c0,11.23,3.07,19.7,9.21,25.42,6.14,5.72,15.01,8.58,26.62,8.58s21.37-2.86,27.96-8.58Z"/>
        <path class="cls-5" d="m790.64,18.46c10.6,9.43,15.91,22.19,15.91,38.28v27.96c0,16.1-5.81,28.97-17.41,38.6-11.61,9.64-26.57,14.46-44.87,14.46-6.92,0-16.19-.84-27.8-2.54v96.9h-23.11V4.32h54.59c17.86,0,32.09,4.72,42.7,14.14Zm-7.2,38.92c0-22.66-11.84-33.99-35.5-33.99h-31.48v92.13c8.71,1.48,17.97,2.22,27.8,2.22,12.27,0,21.88-2.86,28.8-8.58,6.92-5.72,10.38-14.08,10.38-25.1v-26.69Z"/>
        <path class="cls-6" d="m880.5,221.15c-9.28-9.42-13.91-22.18-13.91-38.28V4.32h20.21v177.91c0,11.23,2.68,19.7,8.05,25.42,5.37,5.72,13.13,8.58,23.28,8.58s18.69-2.86,24.46-8.58c5.76-5.72,8.64-14.19,8.64-25.42V4.32h20.21v178.55c0,16.1-4.88,28.86-14.64,38.28-9.77,9.43-22.65,14.14-38.66,14.14s-28.36-4.71-37.64-14.14Z"/>
        <path class="cls-7" d="m1105.71,20.05c10.47,9.43,15.71,22.19,15.71,38.28v27.96c0,16.1-5.74,28.97-17.2,38.6-11.47,9.64-26.25,14.46-44.32,14.46-6.84,0-15.99-.84-27.46-2.54v96.9h-22.82V5.91h53.92c17.64,0,31.7,4.72,42.17,14.14Zm-7.11,38.92c0-22.66-11.69-33.99-35.06-33.99h-31.09v92.13c8.6,1.48,17.75,2.22,27.46,2.22,12.12,0,21.61-2.86,28.45-8.58,6.83-5.72,10.25-14.08,10.25-25.1v-26.69Z"/>
      </g>
      <path class="cls-1" d="m789.01,190.81v-15.92h28.44v15.92h-28.44Z"/>
    </g>
    <g>
      <path class="cls-4" d="m24.26,512.91c15.85-16.82,37.2-25.23,64.05-25.23h172.26c26.53,0,47.8,8.49,63.81,25.48,16.01,16.98,24.02,39.55,24.02,67.69v93.17H.48v-93.17c0-28.46,7.93-51.11,23.78-67.93Zm64.54,36.39c-11.96,0-20.7,2.43-26.2,7.28-5.5,4.85-8.25,12.94-8.25,24.26v32.03h240.2v-32.03c0-11.32-2.75-19.41-8.25-24.26-5.5-4.85-14.23-7.28-26.2-7.28H88.8Z"/>
      <path class="cls-4" d="m348.89,431.39H0v-61.63h348.89v61.63Z"/>
      <path class="cls-4" d="m24.26,144.61c15.85-16.82,37.2-25.23,64.05-25.23h172.26c26.53,0,47.8,8.49,63.81,25.48,16.01,16.98,24.02,39.55,24.02,67.69v93.17H.48v-93.17c0-28.46,7.93-51.11,23.78-67.93Zm64.54,36.39c-11.96,0-20.7,2.43-26.2,7.28-5.5,4.85-8.25,12.94-8.25,24.26v32.03h240.2v-32.03c0-11.32-2.75-19.41-8.25-24.26-5.5-4.85-14.23-7.28-26.2-7.28H88.8Z"/>
      <path class="cls-4" d="m348.89,63.09H0V1.46h348.89v61.63Z"/>
    </g>
    <text class="cls-3" transform="translate(363.05 674.92)"><tspan x="0" y="0">M</tspan><tspan class="cls-8" x="152.75" y="0">U</tspan><tspan x="278.5" y="0">SEUM</tspan></text>
    <text class="cls-2" transform="translate(363.75 463.7)"><tspan x="0" y="0">DESIGN</tspan></text>
  </g>
</svg>