<?xml version="1.0" encoding="UTF-8"?>
<svg id="Layer_2" data-name="Layer 2" xmlns="http://www.w3.org/2000/svg" viewBox="0 0 149.51 70.87">
  <defs>
    <style>
      .cls-1 {
        fill: #fff;
        stroke-width: 0px;
      }
    </style>
  </defs>
  <g id="Layer_2-2" data-name="Layer 2">
    <g id="Layer_1-2" data-name="Layer 1-2">
      <path class="cls-1" d="m1.32,58.77l-1.32-1.32V1.32L1.32,0h140.35c1.03.68,1.16,1.78,1.59,2.8,1.61,3.8,5.31,18.95,5.78,23.17,1.11,9.97.05,22.84-.78,32.8h-17.54c-3.58,16.48-25.01,15.71-29.52-.04l-53.67.18c-3.86,15.85-26.15,16.08-29.09-.14H1.32ZM119.29,23.69h22.81l-4.39-18.42h-18.42v18.42Zm-29.82,0h23.69V5.27h-23.69v18.42Zm-29.82,0h23.69V5.27h-23.69v18.42Zm-29.82,0h23.69V5.27h-23.69v18.42Zm-23.69,0h17.54V5.27H6.14v18.42Zm107.64,41.04c12.32,2.79,15.53-14.76,4.89-17.18-12.28-2.79-15.41,14.79-4.89,17.18Zm-73.57-3.89c5.87-9.53-6.74-17.83-13.64-11.44-9.44,8.75,6.55,22.95,13.64,11.44Z"/>
    </g>
  </g>
</svg>