<?xml version="1.0" encoding="UTF-8"?>
<svg id="Layer_2" data-name="Layer 2" xmlns="http://www.w3.org/2000/svg" viewBox="0 0 170.76 70.87">
  <defs>
    <style>
      .cls-1 {
        fill: #fff;
        stroke-width: 0px;
      }
    </style>
  </defs>
  <g id="Layer_2-2" data-name="Layer 2">
    <path class="cls-1" d="m170.76,52.12c-1.24-3.02-3.24-2.44-5.84-2.99-1.15-5.47-3.33-10.85-6.69-15.32-9.37-12.47-28.7-15.22-43.27-15.69-2.53-4.05-4.97-11.13-9.13-13.62C96.48-1.11,69.6-.69,58.97,1.53c-16.67,3.49-33.47,14.87-43.43,28.6-4.18,5.76-5.69,12.44-7.24,19.27-3.27.29-6.76-1.08-8.29,2.71v1.67c.81,3.87,5.91,2.01,7.02,2.81.58.42.3,2.92,2.89,3.45,3.63.73,9.03-.38,12.86.07,6.48,14.11,26.62,14.44,32.97.06l68.15-.06c.29,0,.47.15.67.33.47.42,2.01,3.59,2.99,4.68,8.61,9.48,24.65,6.78,29.57-4.95,3.54-.18,7.57.94,8.33-3.68,2.59.21,4.19-.28,5.29-2.71v-1.67ZM82.45,9.2c5.11.14,16.29.5,20.51,3.17,1.55.98,5.46,7.83,5.46,9.58s-1,1.72-2.52,1.85c-6.74.55-19.69.62-26.38,0-1.62-.15-2.29-.45-2.49-2.18-.18-1.53-.22-10.08.15-11.2.6-1.82,3.74-1.26,5.26-1.22Zm-9.49.98c.37.37.38,1.22.43,1.74.12,1.49.18,10.01-.19,10.85-.14.32-.56.61-.83.83l-26.26-.07c-3.16-1.52,2.32-5.89,3.68-6.84,3.99-2.81,9.82-4.72,14.58-5.76,1.56-.34,7.62-1.73,8.6-.75Zm60.23,35.06c10.26-10,25.18,5.7,15.24,15.4-10.33,10.08-25.24-5.65-15.24-15.4Zm-93.11-3.03c15.83.93,11.24,26.55-4.72,20.75-10.98-3.99-7.75-21.48,4.72-20.75Z"/>
  </g>
</svg>