<?xml version="1.0" encoding="UTF-8"?>
<svg id="Layer_2" data-name="Layer 2" xmlns="http://www.w3.org/2000/svg" viewBox="0 0 52.89 70.87">
  <defs>
    <style>
      .cls-1 {
        fill: #fff;
        stroke-width: 0px;
      }
    </style>
  </defs>
  <g id="Layer_2-2" data-name="Layer 2">
    <path class="cls-1" d="m44.53,32.28c.7.1,1.97.78,2.52,1.26,1.01.89,4.93,7.94,5.47,9.41,1,2.7-.05,5.51-2.65,6.77-.59.29-2.81.72-2.93,1.12l-.02,20.02h-4.28s0-20.42,0-20.42H10.1v19.29c0,.23-.13.97-.38,1.13h-3.78l-.39-.87v-19.55c-3.91-.39-6.71-3.84-5.08-7.75.71-1.68,3.42-6.73,4.47-8.14.54-.72,2.4-2.29,3.26-2.29h5.17v-7.31h-4.16c-2.33,0-4.86-3.25-5.15-5.44-.35-2.71-.35-11.11,0-13.83C4.45,2.77,7.03.39,9.97.25c10.52.61,21.88-.78,32.3,0,3.61.27,5.9,2.9,6.18,6.43.21,2.7.34,11.53-.33,13.81-.53,1.79-2.91,4.48-4.85,4.48h-3.78c-.36.22-.35.5-.39.87-.12,1.04-.16,4.87.01,5.81.05.28.13.47.38.63,1.58.16,3.52-.22,5.04,0Zm-9.71-7.31h-16.9v7.31h16.9v-7.31Z"/>
  </g>
</svg>