<?xml version="1.0" encoding="UTF-8"?>
<svg id="Layer_2" data-name="Layer 2" xmlns="http://www.w3.org/2000/svg" viewBox="0 0 108.34 70.87">
  <defs>
    <style>
      .cls-1 {
        fill: #fff;
        stroke-width: 0px;
      }
    </style>
  </defs>
  <g id="Layer_2-2" data-name="Layer 2">
    <path class="cls-1" d="m106.33,44.08c-3.53-7.19-11.24-10.87-19.13-9.96l-8.64-23.29c-.65-2.79-3.79-3.57-5.15-5.07-.95-1.05-2.11-4.72-2.8-5.29-.43-.35-.95-.33-1.47-.38-1.78-.15-8.44-.2-9.79.45-.92.44-1.2,1.92-.52,2.61,1.46,1.47,7.01-.05,9.15.36.62.12.88.59,1.28.99-3.73-.15-6.79,1.03-7.9,4.83,2.2,1.08,4.51,1.36,6.68,2.64,2.9,1.71,3.62,3.54,4.85,6.5,2.4,5.76,4.08,11.85,6.55,17.6.22,1.31-2.1,2.39-2.97,3.29-10.59,10.91-3.6,30.3,11.67,31.41,14.6,1.06,24.68-13.47,18.19-26.7Zm-6.92,12.69c-4.54,10.58-21.24,6.84-19.93-6.03.06-.59.21-1.13.42-1.66.15-.49.34-.97.58-1.42.08-.27.18-.54.31-.8.05-.09.1-.19.13-.29-.05.11-.1.23-.15.34.25-.57.52-1.08.98-1.57.09-.1.19-.18.29-.27.08-.12.16-.23.25-.34.01-.03.03-.06.05-.09,0,0,.02,0,.02,0,.07-.08.14-.17.22-.25,1.85-1.7,4.36-2.5,6.83-2.67.4-.03.79.02,1.15.12,0-.02,0-.04.01-.05,7.3,1.01,11.83,8,8.85,14.95Z"/>
    <path class="cls-1" d="m34.29,33.09l29.19-.07c1.91.04,2.53,1.26,2.69,2.98.34,3.63.38,11.76,0,15.34-.31,2.81-2.69,5.68-5.56,6.08-3.81.52-14.19.41-18.15.04-4.94-.46-4.5-6.9-5.6-10.57-.26-.88-.63-1.84-1.01-2.68-.83-1.86-4.04-5.71-4.25-6.83-.26-1.37,1.29-3.95,2.7-4.27Zm28.75,14.13h-17.03v.28h17.03v-.28Z"/>
    <path class="cls-1" d="m32,39.94c8.98,9.49,4.52,26.26-7.91,30.06C9.77,74.39-3.45,61.39.81,47c4-13.5,21.65-17.14,31.19-7.06Zm-15.01,2.24c-14.46,1.98-9.84,23.98,3.77,20.52,12.75-3.25,9.22-22.3-3.77-20.52Z"/>
    <path class="cls-1" d="m56.45,10.41c7.03-.7,12.79,2.04,15.72,8.52,1.88,4.15,4.28,11.83-2.45,12.4-8.35.71-17.68-.56-26.13,0-3.79-.22-3.73-3.95-3.12-6.83,1.52-7.28,8.62-13.37,15.99-14.1Z"/>
    <path class="cls-1" d="m39.91,20.82c.26.2.37.29.38.65.03,1.22-1.36,3.96-1.39,5.74-.02,1.45.63,2.73.87,4.11l-15.45.3c-4.79.09-6.61-1.41-10-4.5-2.84-.3-5.94.19-8.75-.05-1.1-.09-2.38-.25-2.93-1.32-.47-.9-.49-5.85-.3-7.04s1.01-1.68,2.14-1.84c3.73-.52,9.9-.05,13.89-.01.55,0,1.06-.26,1.62-.23,2.4.14,4.07,2.53,5.46,4.19h14.47Z"/>
    <path class="cls-1" d="m86.8,11.24c1.18-.24,6.07-.24,7.3-.05,1.57.25,2.02,1.55,2.16,2.95.23,2.45.28,8.13,0,10.52-.11.89-.51,1.65-1.35,2.06-1.16.57-7.79.56-8.95,0s-1.26-1.76-1.35-2.9c-.2-2.35-.27-7.66.03-9.92.18-1.31.8-2.38,2.17-2.66Z"/>
    <rect class="cls-1" x="46.01" y="47.22" width="17.03" height=".28"/>
  </g>
</svg>