<?xml version="1.0" encoding="UTF-8"?>
<svg id="Layer_2" data-name="Layer 2" xmlns="http://www.w3.org/2000/svg" viewBox="0 0 91.69 70.87">
  <defs>
    <style>
      .cls-1 {
        fill: #fff;
        stroke-width: 0px;
      }
    </style>
  </defs>
  <g id="Layer_2-2" data-name="Layer 2">
    <g id="Layer_1-2" data-name="Layer 1-2">
      <path class="cls-1" d="m42.11,31.81c-1.38-4.56-4.75-8.7-9.46-10.09-5.74-1.68-12.04,1.23-17.38-2.5C7.37,13.72,10.05,1.12,19.91,0l42.08.33c2.53,1.98,2.32,4.56-.46,6.17l-39.57.19c-2.53.13-5.02,1.94-4.27,4.76,1,3.78,7.81,2.16,10.82,2.48,6.94.74,13.23,3.37,17.18,9.33,1.88,2.83,2.28,6.04,4.13,8.46,2.65-.05,5.92.45,8.48.05,2.98-.47,5.19-2.93,9.29-3.3,32.14-2.94,31.18,43.09,2.78,42.39-5.17-.13-8.79-3.46-12.68-3.94-4.97-.61-17.5-.52-22.58-.02-7.53.74-9.72,6.03-20.04,2.89C-9.22,62.37-3.08,24.61,25.81,28.55c2.71.37,6.31,3.26,6.69,3.26h9.61Zm-18.06,8.12c-3.67-3.87-7.97,1.6-6.45,5.8-2.01,0-4.91-.42-6.27,1.37-2.33,4.9,1.79,6.55,6.27,5.92-1.41,9.56,8.64,9.47,7.28,0,9.26,1.59,9.29-8.85,0-7.28-.05-1.63.34-4.57-.83-5.8Zm49.71,0c-1.43-1.64-6.49-1.43-6.51,2.14-.05,7.47,10.37,2.3,6.51-2.14Zm-31.84,5.94c-3.54.79-3.97,5.45-1.14,6.82,2.08,1,10.43.84,11.82-1.48,3.55-5.93-7.17-6.12-10.68-5.34Zm21.22-.03c-4.61.7-3.51,7.67,1.15,7.2s3.75-7.94-1.15-7.2Zm17.25,6.35c2.34-2.36-.17-7.78-3.8-6.14-5.05,2.29-.03,10,3.8,6.14Zm-10.62.93c-3.4.91-3.36,6.59.6,7.02,5.73.62,4.86-8.48-.6-7.02Z"/>
    </g>
  </g>
</svg>