<?xml version="1.0" encoding="UTF-8"?>
<svg id="Layer_2" data-name="Layer 2" xmlns="http://www.w3.org/2000/svg" viewBox="0 0 72.33 70.87">
  <defs>
    <style>
      .cls-1 {
        fill: #fff;
        stroke-width: 0px;
      }
    </style>
  </defs>
  <g id="Layer_2-2" data-name="Layer 2">
    <g>
      <path class="cls-1" d="m11.61,49.24c.15-10.17,1.92-20.27,5.16-29.88.22-.19,3.43,1.44,4.03,1.67,8.63,3.28,16.38,2.81,24.71-.99,2.2-1,2.97-1.36,5.35-1.96,5.38-1.35,10.04-2.4,15.39-.16,11.56,4.84,4.03,18.79-1.24,25.71-3.08,4.05-7.88,7.07-10.16,11.55-.22.43-.88,1.95-.88,2.33,0,.48.93,1.59,1.16,2.26.72,2.1.06,3.62-1.48,5.06-6.85,6.4-28.32,7.65-36.6,4-3.97-1.75-7.44-6.49-4.16-10.46-1.26-.72-2.68-1.11-3.94-1.86C.71,51.54-.02,41.33,1.82,32.69c.99-4.65,3.13-9.19,2.04-14.17l-2.13-.02-1.73-6.87c4.73-1.3,9.32.26,10.81,5.2,2.87,9.51-5.56,20.16-1.68,29.41.12.29,2,3.57,2.47,3.01Zm41.7-1.72c2.06-1.97,3.97-4.37,5.68-6.68,2.46-3.33,6.63-9.17,6.14-13.42s-8.28-2.47-11.01-1.77c-.6.15-3.24.76-3.37,1.15l2.56,20.71Z"/>
      <path class="cls-1" d="m35.28,5.58c4.12,1.06,8.22,3.25,11.04,6.48.24.28,1.56,1.92,1.59,2.08.06.36-1.19.97-1.55,1.18-8.86,5.17-20.03,4.75-28.95-.04,2.52-4.56,7-7.97,12.01-9.48.12-2.92-.77-6.1,3.36-5.77,3.2.26,2.34,3.22,2.51,5.56Z"/>
    </g>
  </g>
</svg>