<?xml version="1.0" encoding="UTF-8"?>
<svg id="Layer_2" data-name="Layer 2" xmlns="http://www.w3.org/2000/svg" viewBox="0 0 69.31 70.87">
  <defs>
    <style>
      .cls-1 {
        fill: #fff;
        stroke-width: 0px;
      }
    </style>
  </defs>
  <g id="Layer_2-2" data-name="Layer 2">
    <g id="Layer_1-2" data-name="Layer 1-2">
      <g>
        <path class="cls-1" d="m13.25,61.93c-1.99-2.04.5-5.41,1.6-7.37,6.26-11.17,16.25-23.6,24.77-33.18C45.25,15.06,56.49,1.77,64.65.16c8.16-1.61,3.58,9.35,1.42,13.16-3.56,6.29-17.38,20.92-22.97,26.7-5.07,5.25-18.92,18.04-24.86,21.36-1.41.79-3.56,2-4.99.54h0Z"/>
        <path class="cls-1" d="m55.84,28.98l13.47,37.87-1.48,2.79-2.01-.61-21.62-26.75c-.3-.86.17-1.29.55-1.93,1.77-3.01,7.98-7.22,9.65-10.92l1.43-.44h0Z"/>
        <path class="cls-1" d="m41.36,16.57l-11.37,12.91L1.38,11.35c-2.94-1.89-.7-5,2.18-4.32l37.8,9.54h0Z"/>
        <polygon class="cls-1" points="16.52 47.61 12.64 54.47 2.73 49.67 4.52 46.35 16.52 47.61"/>
        <path class="cls-1" d="m20.67,61.42c2.14-.4,3.27-2.55,5.16-3.49.57-.28.69-1.19,1.4.01.26.45,2.38,9.43,2.38,10.11.02,2.22-1.48,3.89-3.43,1.98-.57-.56-5.81-8.2-5.52-8.61h0Z"/>
      </g>
    </g>
  </g>
</svg>