<?xml version="1.0" encoding="UTF-8"?>
<svg id="Layer_2" data-name="Layer 2" xmlns="http://www.w3.org/2000/svg" viewBox="0 0 98.46 70.87">
  <defs>
    <style>
      .cls-1 {
        fill: #fff;
        stroke-width: 0px;
      }
    </style>
  </defs>
  <g id="Layer_2-2" data-name="Layer 2">
    <g>
      <path class="cls-1" d="m6.39,2.29l85.03-.12c3.16.23,5.08.58,5.4,4.1,1.72,18.64-1.34,39.89,0,58.8.06,2.63-2.08,4.12-4.54,4.1H7.57c-2.58-.23-5.05-1.13-4.97-4.1,1.33-18.78-1.7-39.85,0-58.37.26-2.81.96-3.79,3.79-4.42Zm86.52,4.22H6.5v37.59l25.28-22.92,21.44,23.29c.53.3,1.04-.06,1.48-.35,3.26-2.17,6.85-7.75,10.02-10.38l1.12-.37,27.07,23.69V6.51ZM6.5,49.93v14.91h27.44l17.04-17.44-19.26-20.55-2.75,1.91L6.5,49.93Zm33.27,14.91h53.14c.04-.95.15-1.94-.61-2.63l-26.82-23.73-25.71,26.36Z"/>
      <path class="cls-1" d="m78.99,7.92c12.63-.25,13.59,19.18.76,19.77-13.62.63-13.66-19.52-.76-19.77Zm-1.32,4.3c-5.92,1.23-5.7,10.85.81,11.54,8.74.92,8.8-13.53-.81-11.54Z"/>
      <path class="cls-1" d="m2.17,69.15h0C.97,69.15,0,68.18,0,66.99V2.17C0,.97.97,0,2.17,0h0c1.2,0,2.17.97,2.17,2.17v46.84s0,17.98,0,17.98c0,1.2-.97,2.17-2.17,2.17Z"/>
      <rect class="cls-1" x="94.12" y="0" width="4.33" height="69.15" rx="2.17" ry="2.17"/>
      <rect class="cls-1" x="47.48" y="-46.64" width="4.33" height="97.61" rx="2.17" ry="2.17" transform="translate(51.82 -47.48) rotate(90)"/>
      <rect class="cls-1" x="46.21" y="18.61" width="6.05" height="98.46" rx="3.02" ry="3.02" transform="translate(117.07 18.61) rotate(90)"/>
    </g>
    <polygon class="cls-1" points="6.5 44.1 31.78 21.18 53.22 44.47 55.22 47.65 63.07 38.47 67.59 38.47 92.95 60.39 94.12 66.99 6.5 66.99 6.5 44.1"/>
    <polygon class="cls-1" points="73.41 19.28 73.41 12.03 81.82 10.69 85.66 14.98 85.66 21.18 82.27 23.8 76.62 25.38 73.41 19.28"/>
  </g>
</svg>