<?xml version="1.0" encoding="UTF-8"?>
<svg id="Layer_2" data-name="Layer 2" xmlns="http://www.w3.org/2000/svg" viewBox="0 0 68.75 70.87">
  <defs>
    <style>
      .cls-1 {
        fill: #fff;
        stroke-width: 0px;
      }
    </style>
  </defs>
  <g id="Layer_2-2" data-name="Layer 2">
    <g>
      <path class="cls-1" d="m15.96,47.46c-.75-.92-3.7-5.54-4.33-5.8-.61-.25-.4.41-.48.7-.32,1.18-1.79,5.55-1.74,6.28.11,1.7,5.8,6.76,3.27,8.08-1.78.92-1.46-3.42-3.58-3-1.24.24-.01,2.03-1.2,2.97-.28.09-.55.18-.83.28,3.1,4.17,7.08,7.62,11.66,10.03-.69-1.22-1.28-2.62-1.57-3.16-.45-.81-3.77-4.75-1.6-5.16,1.14-.22,4.15,4.84,4.73,5.91.33.62,1.43,2.61,1.24,3.72,2.16.9,4.43,1.58,6.78,2.01-.46-1.68-1.03-4.5-1.39-5.5-2.47-6.96-6.45-11.85-10.94-17.36Z"/>
      <path class="cls-1" d="m68.75,35.44C68.75,15.87,53.36,0,34.37,0S0,15.87,0,35.44c0,7.18,2.08,13.87,5.64,19.45.23-.1.4-.19.5-.27.65-.55-.25-2.58,1.78-2.54-4.09-3.21.36-6.35.87-10,.56-4.01-3.3-9.75,4.03-8.74.55.07.89.36,1.35.58.07-5.46,2.95-10.24,6.85-13.86,3.07-2.85,8.64-4.51,8.64-9.53,0-3.5-3.42-4.57-3.87-6.57-.24-1.07.57-1.54,1.57-1.28,1.48.39,3.55,4.14,3.94,5.62.75,2.85.3,4.13-.19,6.78-1.7,1.3-3.22,2.87-4.88,4.23-1.23,1.01-3,1.96-4.16,2.99-2.89,2.58-5.45,7.94-5.78,11.8-.15,1.73.5,9.29,1.08,10.76.35.88,1.38,1.21,1.86,1.8,2.81,3.39,6.64,8.84,8.67,12.72,1.75,3.34,2.14,7.66,3.81,11.4.42.03.85.06,1.28.07,1.12-2.06,1.31-4.93-.37-6.7-.69-.72-3.85-2.07-2.85-3.45.82-1.12,5.12,1.35,6.36,1.72,5.57,1.68,14.74.57,18.68-4.08.96-1.14,2.39-3.3,2.81-4.64.37-1.16,1.76-7.92,1.21-8.48-.15-.15-4.18.41-2.84-1.79.86-1.41,8.65.86,7.24-3.95-.79-2.69-6.85.33-7.38-.21-.1-.1.01-.93.14-1.19.48-.94,5.64-1.9,6.78-1.72,2.93.45,3.72,5.3,1.61,7.28-.7.66-2.75,1.21-2.83,1.34-.2.3.02,1.87-.04,2.49-.59,5.43-1.96,10.62-6.25,14.3-1.09.93-2.45,1.48-3.53,2.41-.03.3.11.9.34,1.64,9.98-6.2,16.66-17.48,16.66-30.37ZM31.43,4.59c-.7-.51-1.99-.93-2.3-1.87-.08-.25-.13-1.21-.06-1.28.92-.94,5.74,2.72,3.88,4.03-.91.64-1.1-.57-1.52-.88Zm2.26,47.5c-1.84,3.01-8.45-4.02-9.52-5.68-2.76-4.27-2.32-12.33,3.94-12.41.78-.01,1.5.27,2.13.68.99.64,2.98,2.97.53,2.47-1.15-.24-2.34-2.3-4.37-.68-3.66,2.93.06,9.37,2.98,11.58,1.03.78,5.36,2.33,4.31,4.05Zm-4.33-11.62c-.71.03-1.41-.09-1.95-.59-.8-1.28,3.22-1.9,3.67-.4.44,1.46-.49,2.06-.54,2.94-.03.54,2.18,3.7-.82,2.29-2.1-.99-.2-4.09-.37-4.25ZM32.64.85c1.51-.35,3.49,1.82,3.57,3.15.2,3.11-4.47-2.25-3.57-3.15Zm20.32,55.32c-2.77,4.88-10.19,3.88-4.1-2.47,3.27-3.4,6.5-1.76,4.1,2.47Zm-3.64-29.4c-.79.9-3-4.5-.89-5.52,1.89-.92,5.11,3.64.6,1.65l.29,3.87Zm5.24,9.86c-1.7,1.4-3.25-3.01-2.23-4.62.46-.72,1.66-1.03,2.28-.4.58.59.6,4.49-.05,5.02Zm-1.23-15.5c-1.52-1.99-5.16-4.41-7.5-5.31-1-.38-5.39-1.24-5.6-1.55-.74-1.12.42-1.21.71-1.68,1.35-2.17.27-5.74-1.31-7.55-.96-1.1-3.75-1.96-3.43-3.41.33-1.49,3.99.83,4.66,1.43,2.33,2.08,5.13,7.52,1.91,10,5.54-.63,15.37,7.69,15.79,12.96.08,1.04.09,2.35-1.3,1.9-.38-.12-3.16-5.79-3.94-6.8Zm6.24,14.26c-1.94.57-3.55-4.09-1.4-4.71,2.12-.61,2.33,4.44,1.4,4.71Z"/>
      <path class="cls-1" d="m45,65.78c-1.21.1-6.68-.32-6.99-.16-.13.07-1.86,2.13-1.92,2.26-.19.4-.57,1.98-.94,2.98,5.25-.12,10.21-1.45,14.62-3.73-.23-1.05-.44-1.95-.59-2.25-1.31.37-2.81.78-4.17.89Z"/>
    </g>
  </g>
</svg>