<?xml version="1.0" encoding="UTF-8"?>
<svg id="Layer_2" data-name="Layer 2" xmlns="http://www.w3.org/2000/svg" viewBox="0 0 118.47 70.87">
  <defs>
    <style>
      .cls-1 {
        fill: #fff;
        stroke-width: 0px;
      }
    </style>
  </defs>
  <g id="Layer_2-2" data-name="Layer 2">
    <g id="Layer_1-2" data-name="Layer 1-2">
      <path class="cls-1" d="m104.62,60.07c-4.96,14.33-26.61,14.33-32.01.18l-26.04-.27c-5.82,14.24-26.9,14.74-32.47.11-8.37,0-12.71.46-13.45-7.97C-.27,41.64-.17,24.49.65,13.95,1.18,7.15,3.54,1.69,12.02.6c25.43,1.5,53.61-1.92,78.71,0,5.35.41,9.75,2.74,12.7,6.73,2.46,3.32,14.25,24.31,14.63,27.34.55,4.26.54,14.8,0,19.07-.9,7.12-7,6.25-13.44,6.34h0ZM63.36,8.25H11.43c-.25,0-2.15,2.16-2.15,2.45v15.53h54.08V8.25h0Zm41.18,17.98c-2.44-4.35-4.58-9.72-7.5-13.78-.9-1.26-3.35-4.2-5.1-4.2h-19.97v17.98h32.57ZM28.8,48.68c-10.52,1.35-8.41,16.02,2.87,14.56,10.15-1.32,8.56-16.02-2.87-14.56Zm58.38,0c-12.27,1.58-5.9,19.87,5.88,13.41,7.8-4.28,3.08-14.55-5.88-13.41Z"/>
    </g>
  </g>
</svg>